# xmcd
#
# Track frame offsets:
#	150
#	18530
#	37145
#	58852
#	79135
#	93387
#	117307
#	142817
#	167702
#	186195
#
# Disc length: 2739 seconds
#
# Revision: 2
# Processed by: cddbd v1.4PL0 Copyright (c) Steve Scherf et al.
# Submitted via: audiograbber 1.81.01
#
DISCID=860ab10a
DTITLE=Various Artist - A Celebration Of Blues - The New Breed
DYEAR=1997
DGENRE=Blues
TTITLE0=The Kinsley Report - Get Outta Here
TTITLE1=Lee Rocker's Big Blue - Find Another Man
TTITLE2=Toni Lynn Washington - Driving Wheel
TTITLE3=Kenny Neal - The Truth Hurts
TTITLE4=Paul James - Who Do You Love
TTITLE5=Dave Hole - Short Fuse Blues
TTITLE6=Smokey Wilson - Killing Floor
TTITLE7=Rita Chiarelli - Tupelo
TTITLE8=Michael Hill's Blues Mob - Righteous Love
TTITLE9=Tinsley Ellis - Sign of the Blues
EXTD=
EXTT0=The Kensey Report " Midnight Drive " CD
EXTT1=Lee Rocker's Big Blues " Big Blues " CD
EXTT2=Toni Lynn Washington " Blues at Midnight " CD
EXTT3=Kenny Neal " Walking on Fire " CD
EXTT4=Paul James " Acoustic Blues" CD
EXTT5=Dave Hole " Short Fuse Blues " CD
EXTT6=Smokey Wilson " Smoke n' Fire " CD
EXTT7=Rita Chairelli " Just Gettin' Started " CD
EXTT8=Micheal Hill's Blues Mob " Bloodlines" CD
EXTT9=Tinsley Ellis " Trouble Time " CD
PLAYORDER=
